<?xml version="1.0" encoding="UTF-8" standalone="no"?>
<!-- Created with Inkscape (http://www.inkscape.org/) -->

<svg
   width="400pt"
   height="400pt"
   viewBox="0 0 141.11111 141.11111"
   version="1.1"
   id="svg5"
   xml:space="preserve"
   inkscape:version="1.2 (dc2aedaf03, 2022-05-15)"
   sodipodi:docname="Tin labs logo.svg"
   xmlns:inkscape="http://www.inkscape.org/namespaces/inkscape"
   xmlns:sodipodi="http://sodipodi.sourceforge.net/DTD/sodipodi-0.dtd"
   xmlns="http://www.w3.org/2000/svg"
   xmlns:svg="http://www.w3.org/2000/svg"><sodipodi:namedview
     id="namedview7"
     pagecolor="#505050"
     bordercolor="#eeeeee"
     borderopacity="1"
     inkscape:showpageshadow="0"
     inkscape:pageopacity="0"
     inkscape:pagecheckerboard="0"
     inkscape:deskcolor="#505050"
     inkscape:document-units="mm"
     showgrid="false"
     inkscape:zoom="1"
     inkscape:cx="187.5"
     inkscape:cy="338"
     inkscape:window-width="1920"
     inkscape:window-height="1017"
     inkscape:window-x="-8"
     inkscape:window-y="-8"
     inkscape:window-maximized="1"
     inkscape:current-layer="layer1" /><defs
     id="defs2" /><g
     inkscape:label="Layer 1"
     inkscape:groupmode="layer"
     id="layer1"><g
       id="g302"
       transform="matrix(1.1124605,0,0,1.1124605,-36.82692,-88.471916)"><path
         style="fill:#eeeeee;fill-opacity:1;stroke-width:0.182145"
         d="m 137.25398,174.99061 c 0.009,-0.21219 0.0519,-0.25535 0.11005,-0.11005 0.0526,0.13149 0.0461,0.28859 -0.0144,0.34911 -0.0605,0.0605 -0.10358,-0.0471 -0.0957,-0.23906 z m 0.0144,-2.99021 c 0,-0.25045 0.0413,-0.35291 0.0919,-0.22768 0.0505,0.12522 0.0505,0.33014 0,0.45536 -0.0505,0.12523 -0.0919,0.0228 -0.0919,-0.22768 z m -66.067657,-21.9029 -0.534975,-0.59197 0.59197,0.53498 c 0.5518,0.49867 0.675693,0.64896 0.534976,0.64896 -0.03135,0 -0.297734,-0.26638 -0.591971,-0.59197 z M 105,132.65715 c -0.15027,-0.0971 -0.4902,-0.17782 -0.75541,-0.17935 -0.91066,-0.005 -3.04098,-1.28932 -4.524022,-2.72686 -1.692674,-1.64073 -2.26464,-2.48384 -2.622516,-3.86572 -0.147335,-0.56891 -0.357688,-1.20219 -0.467456,-1.40729 -0.109766,-0.2051 -0.245642,-0.96911 -0.301948,-1.69779 -0.05631,-0.72869 -0.129658,-1.65275 -0.163002,-2.05346 -0.122271,-1.4694 -0.439618,-3.04671 -0.907537,-4.51073 -0.671879,-2.10219 -0.77676,-2.48825 -0.915345,-3.36941 -0.137286,-0.87289 -0.465982,-1.13602 -1.419074,-1.13602 -0.621418,0 -4.239439,0.65973 -6.502448,1.1857 -1.63761,0.38061 -6.113318,1.28322 -8.19651,1.65299 -0.951706,0.16892 -2.099217,0.37762 -2.550026,0.46376 -2.990088,0.57138 -3.984216,0.66178 -5.54174,0.50391 -2.459767,-0.24932 -5.450093,-1.32569 -7.026242,-2.52909 -0.350628,-0.26771 -1.316709,-0.88694 -2.146846,-1.37606 -1.385811,-0.81654 -2.004052,-1.31618 -3.069613,-2.48077 -0.748434,-0.81799 -1.852969,-3.62802 -2.351041,-5.98124 -0.265045,-1.25225 -0.593236,-2.52271 -0.729315,-2.82325 -0.136078,-0.30054 -0.419352,-0.990634 -0.629496,-1.533551 -0.210144,-0.542917 -0.534299,-1.321585 -0.720345,-1.730374 -0.489119,-1.074716 -0.619802,-1.99388 -0.384743,-2.706116 l 0.204791,-0.620522 1.86238,-0.256538 c 5.624764,-0.774796 11.208904,0.08952 16.036525,2.482153 3.229066,1.600365 4.505146,2.605097 8.776085,6.909908 4.113355,4.14597 5.368975,5.16631 7.627875,6.19851 2.438401,1.11422 3.128702,1.21594 9.311579,1.37217 3.10557,0.0785 6.22024,0.23684 6.9215,0.35192 0.70125,0.11509 2.02955,0.22494 2.95176,0.24411 l 1.67674,0.0349 0.34999,0.63751 c 0.19249,0.35062 0.60697,1.1062 0.92108,1.67905 0.93691,1.70874 1.56901,2.5547 3.2525,4.35297 2.89128,3.08838 3.90786,5.12866 3.93723,7.90204 0.02,1.88691 -0.27416,2.64068 -1.46215,3.74681 -1.46303,1.36223 -3.5038,2.47343 -5.70687,3.10738 -1.2846,0.36966 -4.25568,0.46901 -4.73634,0.15838 z M 33.067234,119.80077 c 0.0087,-0.21218 0.0519,-0.25534 0.110045,-0.11004 0.05262,0.13148 0.04615,0.28858 -0.01437,0.34911 -0.06053,0.0605 -0.103575,-0.0471 -0.09567,-0.23907 z m 0.01438,-1.89734 c 0,-0.25045 0.04134,-0.3529 0.09187,-0.22768 0.05053,0.12523 0.05053,0.33014 0,0.45536 -0.05053,0.12523 -0.09187,0.0228 -0.09187,-0.22768 z m 126.758306,-3.02056 c 0.009,-0.21219 0.0519,-0.25535 0.11005,-0.11005 0.0526,0.13149 0.0461,0.28859 -0.0144,0.34911 -0.0605,0.0605 -0.10358,-0.0471 -0.0957,-0.23906 z m 0,-3.46075 c 0.009,-0.21219 0.0519,-0.25535 0.11005,-0.11005 0.0526,0.13149 0.0461,0.28859 -0.0144,0.34911 -0.0605,0.0605 -0.10358,-0.047 -0.0957,-0.23906 z m -16.09822,-4.17401 c -0.48112,-0.13227 -1.33402,-0.51428 -1.89534,-0.8489 -2.64907,-1.5792 -3.69083,-3.74031 -3.69466,-7.664548 -0.002,-1.702885 -0.31179,-2.587921 -1.6123,-4.601107 l -0.94132,-1.457158 0.77522,-0.123108 c 1.36678,-0.217045 4.36808,-0.156761 6.08869,0.122301 4.57563,0.742112 8.49564,2.821706 11.73445,6.22521 1.40593,1.47742 2.53946,3.00917 3.22573,4.35894 l 0.38006,0.74753 -2.03927,0.10075 c -2.41791,0.11945 -3.29757,0.4094 -5.2283,1.72333 -2.31828,1.57768 -4.52992,2.03895 -6.79296,1.41676 z m -25.263,-3.0743 c 0,-0.0378 0.14344,-0.18126 0.31876,-0.31875 0.28889,-0.22656 0.29533,-0.22012 0.0688,0.0688 -0.23795,0.30341 -0.38753,0.3999 -0.38753,0.24998 z m 2.27681,-2.48125 c 0.18132,-0.20036 0.37066,-0.36429 0.42075,-0.36429 0.0501,0 -0.0573,0.16393 -0.2386,0.36429 -0.18133,0.20036 -0.37066,0.36429 -0.42075,0.36429 -0.0501,0 0.0573,-0.16393 0.2386,-0.36429 z M 41.431509,99.984486 c 0,-0.03782 0.143439,-0.181261 0.318753,-0.318753 0.288892,-0.226565 0.295335,-0.220122 0.06877,0.06877 -0.237949,0.303407 -0.387524,0.399897 -0.387523,0.249983 z m 82.875821,-1.821447 c 0,-0.03782 0.14344,-0.181261 0.31876,-0.318753 0.28889,-0.226564 0.29533,-0.220122 0.0688,0.06877 -0.23795,0.303407 -0.38753,0.399895 -0.38753,0.249982 z"
         id="path316" /><path
         style="fill:#b9b9b9;fill-opacity:1;stroke-width:0.182145"
         d="m 137.29937,173.54863 c 7.3e-4,-0.70126 0.0337,-0.96581 0.0732,-0.58791 0.0394,0.37791 0.0388,0.95167 -0.001,1.27501 -0.0402,0.32335 -0.0725,0.0142 -0.0717,-0.6871 z m -0.22753,-2.74735 c 0.009,-0.21219 0.0519,-0.25535 0.11004,-0.11004 0.0526,0.13148 0.0461,0.28858 -0.0144,0.34911 -0.0605,0.0605 -0.10357,-0.0471 -0.0957,-0.23907 z m -46.475057,-2.94467 -0.441575,-0.5009 0.500897,0.44158 c 0.468165,0.41272 0.584428,0.56022 0.441576,0.56022 -0.03263,0 -0.25803,-0.22541 -0.500898,-0.5009 z M 41.22613,137.80274 c -0.226564,-0.28889 -0.220122,-0.29534 0.06877,-0.0688 0.303408,0.23795 0.399895,0.38752 0.249983,0.38752 -0.03782,0 -0.181261,-0.14344 -0.318753,-0.31875 z m -0.910724,-0.91072 c -0.226564,-0.2889 -0.220121,-0.29534 0.06877,-0.0688 0.175314,0.1375 0.318753,0.28094 0.318753,0.31876 0,0.14991 -0.149575,0.0534 -0.387524,-0.24998 z m 66.096214,-3.99912 c 0.2254,-0.0434 0.59425,-0.0434 0.81965,0 0.2254,0.0434 0.041,0.0789 -0.40983,0.0789 -0.4508,0 -0.63522,-0.0355 -0.40982,-0.0789 z m 2.56141,-0.17803 c 0.13148,-0.0526 0.28858,-0.0461 0.34911,0.0144 0.0605,0.0605 -0.0471,0.10358 -0.23907,0.0957 -0.21218,-0.009 -0.25534,-0.0519 -0.11004,-0.11005 z m -4.74715,-0.17835 c 0.12523,-0.0505 0.33014,-0.0505 0.45536,0 0.12523,0.0505 0.0228,0.0919 -0.22768,0.0919 -0.25044,0 -0.3529,-0.0413 -0.22768,-0.0919 z m 6.02216,-0.18594 c 0.13149,-0.0526 0.28859,-0.0461 0.34911,0.0144 0.0605,0.0605 -0.047,0.10358 -0.23906,0.0957 -0.21219,-0.009 -0.25535,-0.0519 -0.11005,-0.11004 z m -9.54575,-1.56041 -0.34698,-0.40983 0.40982,0.34699 c 0.38514,0.32608 0.49275,0.47266 0.34699,0.47266 -0.0346,0 -0.21899,-0.18442 -0.40983,-0.40982 z m 12.67636,0.16396 c 0,-0.0421 0.21501,-0.2174 0.47779,-0.38959 0.26278,-0.17218 0.42215,-0.22303 0.35415,-0.113 -0.12996,0.21027 -0.83194,0.63435 -0.83194,0.50259 z m -13.763378,-1.07468 -0.534976,-0.59197 0.59197,0.53497 c 0.325584,0.29424 0.591974,0.56062 0.591974,0.59197 0,0.14072 -0.1503,0.0168 -0.648968,-0.53497 z m 16.131258,-0.77412 c 0.23529,-0.25045 0.46878,-0.45536 0.51887,-0.45536 0.0501,0 -0.10144,0.20491 -0.33672,0.45536 -0.23529,0.25045 -0.46877,0.45536 -0.51886,0.45536 -0.0501,0 0.10143,-0.20491 0.33671,-0.45536 z m 0.83136,-1.23733 c 0.0684,-0.17964 0.17025,-0.28073 0.22633,-0.22465 0.0561,0.0561 1.2e-4,0.20306 -0.12436,0.32661 -0.17989,0.17855 -0.20081,0.15763 -0.10197,-0.10196 z m -19.049477,-0.40637 c -0.126722,-0.15269 -0.195128,-0.3129 -0.152016,-0.35601 0.04311,-0.0431 0.178436,0.0818 0.300717,0.27762 0.264439,0.42344 0.176249,0.46993 -0.148701,0.0784 z m 19.325367,-0.37507 c 0.009,-0.21219 0.0519,-0.25535 0.11005,-0.11004 0.0526,0.13148 0.0461,0.28858 -0.0144,0.34911 -0.0605,0.0605 -0.10358,-0.0471 -0.0957,-0.23907 z m -20.029163,-1.56369 c -0.01162,-0.16712 -0.0683,-0.454 -0.125955,-0.6375 -0.09936,-0.31625 -0.09396,-0.31673 0.103327,-0.009 0.114483,0.17847 0.171161,0.46534 0.125953,0.63751 -0.07405,0.28201 -0.08429,0.28292 -0.103325,0.009 z m -0.538804,-2.70153 c 0,-0.25045 0.04134,-0.35291 0.09187,-0.22768 0.05053,0.12522 0.05053,0.33014 0,0.45536 -0.05053,0.12523 -0.09187,0.0228 -0.09187,-0.22768 z m -0.196523,-2.47413 c 0.0087,-0.21219 0.0519,-0.25535 0.110044,-0.11005 0.05262,0.13149 0.04615,0.28859 -0.01437,0.34911 -0.06052,0.0605 -0.103575,-0.047 -0.09567,-0.23906 z m -62.990503,-1.44198 c 0.002,-0.40072 0.03932,-0.5432 0.08289,-0.31663 0.04357,0.22657 0.04191,0.55443 -0.0037,0.72858 -0.04559,0.17415 -0.08124,-0.0112 -0.07921,-0.41195 z m 80.092463,-0.95626 -1.17868,-1.22948 1.22947,1.17868 c 0.67622,0.64827 1.22948,1.20154 1.22948,1.22948 0,0.13406 -0.18547,-0.0367 -1.28027,-1.17868 z M 95.725,118.34362 c 0.0087,-0.21219 0.0519,-0.25535 0.110045,-0.11005 0.05262,0.13149 0.04615,0.28859 -0.01437,0.34911 -0.06052,0.0605 -0.103575,-0.047 -0.09567,-0.23906 z m 15.63627,-2.39824 -0.44157,-0.5009 0.5009,0.44158 c 0.27549,0.24286 0.5009,0.46827 0.5009,0.50089 0,0.14286 -0.14751,0.0266 -0.56023,-0.44157 z m -41.012171,-0.35651 c 0.226571,-0.0436 0.554432,-0.0419 0.728578,0.004 0.174147,0.0456 -0.01124,0.0812 -0.411949,0.0792 -0.400718,-0.002 -0.543201,-0.0393 -0.316629,-0.0829 z m 1.913861,0.003 c 0.177221,-0.0462 0.423117,-0.0431 0.546434,0.007 0.123318,0.0499 -0.02168,0.0877 -0.322219,0.084 -0.300539,-0.004 -0.401436,-0.0445 -0.224215,-0.0907 z m -3.555287,-0.17656 c 0.125224,-0.0505 0.330137,-0.0505 0.455362,0 0.125224,0.0505 0.02277,0.0919 -0.227681,0.0919 -0.250449,0 -0.352906,-0.0413 -0.227681,-0.0919 z m 4.826834,-0.005 c 0.175314,-0.0458 0.462192,-0.0458 0.637506,0 0.175314,0.0458 0.03187,0.0833 -0.318753,0.0833 -0.350629,0 -0.494068,-0.0375 -0.318753,-0.0833 z m 1.730374,-0.35936 c 0.125224,-0.0505 0.330137,-0.0505 0.455362,0 0.125224,0.0505 0.02277,0.0919 -0.227681,0.0919 -0.250449,0 -0.352906,-0.0413 -0.227681,-0.0919 z m 1.286397,-0.18594 c 0.131484,-0.0526 0.288586,-0.0461 0.349111,0.0144 0.06052,0.0605 -0.04706,0.10358 -0.239065,0.0957 -0.212189,-0.009 -0.255349,-0.0519 -0.110046,-0.11004 z m 0.717194,-0.17835 c 0.125225,-0.0505 0.330138,-0.0505 0.455362,0 0.125224,0.0505 0.02277,0.0919 -0.227681,0.0919 -0.250449,0 -0.352905,-0.0413 -0.227681,-0.0919 z m 1.092868,-0.18214 c 0.125225,-0.0505 0.330138,-0.0505 0.455362,0 0.125224,0.0505 0.02277,0.0919 -0.227681,0.0919 -0.250449,0 -0.352905,-0.0413 -0.227681,-0.0919 z m 81.52785,-1.33654 c 0,-0.85152 0.0314,-1.19988 0.0697,-0.77411 0.0384,0.42576 0.0384,1.12246 0,1.54823 -0.0384,0.42576 -0.0697,0.0774 -0.0697,-0.77412 z m -80.434982,1.15438 c 0.125225,-0.0505 0.330138,-0.0505 0.455362,0 0.125224,0.0505 0.02277,0.0919 -0.227681,0.0919 -0.250449,0 -0.352905,-0.0413 -0.227681,-0.0919 z m 15.064982,-0.0736 c -0.06603,-0.10684 -0.081,-0.23332 -0.03325,-0.28107 0.04774,-0.0477 0.135345,0.0397 0.194667,0.19426 0.123163,0.32096 0.0182,0.37742 -0.161416,0.0868 z m -13.96073,-0.1123 c 0.131485,-0.0526 0.288587,-0.0462 0.349112,0.0144 0.06052,0.0605 -0.04706,0.10357 -0.239065,0.0957 -0.21219,-0.009 -0.255349,-0.0519 -0.110047,-0.11004 z m 0.728579,-0.18215 c 0.131485,-0.0526 0.288586,-0.0461 0.349111,0.0144 0.06052,0.0605 -0.04706,0.10358 -0.239065,0.0957 -0.212189,-0.009 -0.255348,-0.0519 -0.110046,-0.11005 z m 2.003591,-0.36429 c 0.131485,-0.0526 0.288587,-0.0461 0.349112,0.0144 0.06052,0.0605 -0.04706,0.10358 -0.239065,0.0957 -0.21219,-0.009 -0.255349,-0.0519 -0.110047,-0.11005 z m -20.024995,-0.37647 c -0.226565,-0.28889 -0.220122,-0.29534 0.06877,-0.0688 0.303408,0.23795 0.399895,0.38752 0.249983,0.38752 -0.03782,0 -0.181261,-0.14344 -0.318753,-0.31875 z m 20.924335,0.19812 c 0.125224,-0.0505 0.330137,-0.0505 0.455361,0 0.125225,0.0505 0.02277,0.0919 -0.22768,0.0919 -0.250449,0 -0.352906,-0.0413 -0.227681,-0.0919 z m 10.092251,-0.24366 c 0,-0.25045 0.04134,-0.3529 0.09187,-0.22768 0.05053,0.12523 0.05053,0.33014 0,0.45536 -0.05053,0.12523 -0.09187,0.0228 -0.09187,-0.22768 z m -6.267213,-0.66706 c 0.125224,-0.0505 0.330137,-0.0505 0.455361,0 0.125225,0.0505 0.02277,0.0919 -0.22768,0.0919 -0.250449,0 -0.352906,-0.0413 -0.227681,-0.0919 z m 6.007351,-0.22906 c -0.07923,-0.30297 -0.05552,-0.37409 0.07964,-0.23892 0.105844,0.10584 0.156606,0.29996 0.112804,0.43136 -0.04547,0.13642 -0.128037,0.0539 -0.192445,-0.19244 z m -4.903099,0.0431 c 0.131485,-0.0526 0.288586,-0.0462 0.349111,0.0144 0.06052,0.0605 -0.04706,0.10357 -0.239065,0.0957 -0.212189,-0.009 -0.255349,-0.0519 -0.110046,-0.11005 z M 61.365627,111.974 c -0.339521,-0.27201 -0.337288,-0.27537 0.05626,-0.0847 0.225404,0.10923 0.409826,0.2367 0.409826,0.28326 0,0.13939 -0.09446,0.0991 -0.466085,-0.1986 z m 29.658234,-0.0251 c 0.177221,-0.0462 0.423117,-0.0431 0.546434,0.007 0.123317,0.0499 -0.02168,0.0877 -0.322219,0.084 -0.300539,-0.004 -0.401436,-0.0445 -0.224215,-0.0907 z m 1.271546,-0.18638 c 0.275494,-0.0417 0.726302,-0.0417 1.001796,0 0.275494,0.0417 0.05009,0.0759 -0.500898,0.0759 -0.550987,0 -0.776391,-0.0342 -0.500898,-0.0759 z m -33.122099,-1.19009 -0.346983,-0.40982 0.455361,0.36234 c 0.250449,0.19929 0.489514,0.38372 0.531256,0.40983 0.04174,0.0261 -0.007,0.0475 -0.108379,0.0475 -0.101349,0 -0.340414,-0.18442 -0.531255,-0.40983 z m 55.116072,-2.20897 c 0,-0.0378 0.14343,-0.18126 0.31875,-0.31875 0.28889,-0.22657 0.29533,-0.22012 0.0688,0.0688 -0.23795,0.30341 -0.38752,0.39989 -0.38752,0.24998 z m 31.19227,-0.78537 c 0.17531,-0.0458 0.46219,-0.0458 0.63751,0 0.17531,0.0458 0.0319,0.0833 -0.31876,0.0833 -0.35062,0 -0.49406,-0.0375 -0.31875,-0.0833 z M 56.633099,107.1451 c -0.06603,-0.10684 -0.081,-0.23333 -0.03325,-0.28107 0.04774,-0.0477 0.135345,0.0397 0.194667,0.19426 0.123163,0.32096 0.0182,0.37741 -0.161416,0.0868 z m 60.115231,-1.08075 c 0.69588,-0.70126 1.30622,-1.27501 1.35631,-1.27501 0.0501,0 -0.47828,0.57375 -1.17417,1.27501 -0.69588,0.70126 -1.30622,1.27501 -1.35631,1.27501 -0.0501,0 0.47829,-0.57375 1.17417,-1.27501 z m 26.65004,1.15059 c 0.13149,-0.0526 0.28859,-0.0461 0.34911,0.0144 0.0605,0.0605 -0.047,0.10357 -0.23906,0.0957 -0.21219,-0.009 -0.25535,-0.0519 -0.11005,-0.11005 z m -1.1485,-0.41993 c -0.0638,-0.10325 0.009,-0.13378 0.1714,-0.0716 0.31555,0.12109 0.37328,0.25164 0.11128,0.25164 -0.0943,0 -0.22147,-0.081 -0.28268,-0.18006 z m -1.39273,-0.92361 -0.43,-0.3751 0.50089,0.30497 c 0.2755,0.16774 0.5009,0.33653 0.5009,0.3751 0,0.14223 -0.15218,0.0611 -0.57179,-0.30497 z m 9.31474,0.30632 c 0,-0.0378 0.14343,-0.18126 0.31875,-0.31875 0.28889,-0.22656 0.29533,-0.22012 0.0688,0.0688 -0.23795,0.30341 -0.38752,0.3999 -0.38752,0.24998 z m -10.57818,-1.52499 -0.44158,-0.5009 0.5009,0.44158 c 0.27549,0.24286 0.5009,0.46827 0.5009,0.50089 0,0.14286 -0.1475,0.0266 -0.56022,-0.44157 z m 14.00477,-0.35211 c 0.13149,-0.0526 0.28859,-0.0461 0.34911,0.0144 0.0605,0.0605 -0.047,0.10358 -0.23906,0.0957 -0.21219,-0.009 -0.25535,-0.0519 -0.11005,-0.11004 z m 1.71899,-0.1904 c 0.37568,-0.0393 0.99041,-0.0393 1.36609,0 0.37567,0.0393 0.0683,0.0714 -0.68304,0.0714 -0.75135,0 -1.05872,-0.0322 -0.68305,-0.0714 z m -99.846431,-0.70215 c 0.0087,-0.21218 0.0519,-0.25534 0.110044,-0.11004 0.05262,0.13148 0.04615,0.28858 -0.01437,0.34911 -0.06053,0.0605 -0.103575,-0.0471 -0.09567,-0.23907 z m 64.100541,-0.34911 c 0.33984,-0.35063 0.65888,-0.6375 0.70897,-0.6375 0.0501,0 -0.18698,0.28687 -0.52682,0.6375 -0.33985,0.35063 -0.65888,0.63751 -0.70897,0.63751 -0.0501,0 0.18698,-0.28688 0.52682,-0.63751 z m 19.02663,-0.10319 c -0.066,-0.10684 -0.081,-0.23332 -0.0332,-0.28107 0.0477,-0.0477 0.13534,0.0397 0.19467,0.19426 0.12316,0.32096 0.0182,0.37742 -0.16142,0.0868 z m -83.309316,-0.45842 c 0.0087,-0.21219 0.0519,-0.25535 0.110044,-0.11005 0.05262,0.13149 0.04615,0.28859 -0.01437,0.34912 -0.06053,0.0605 -0.103574,-0.0471 -0.09567,-0.23907 z m -14.77571,-1.57859 c 0.44662,-0.47585 0.835954,-0.86518 0.865187,-0.86518 0.136769,0 -0.0078,0.16353 -0.812039,0.91833 l -0.865187,0.81204 z m 97.672666,0.13661 c 0.004,-0.30054 0.0445,-0.40143 0.0907,-0.22421 0.0462,0.17722 0.0432,0.42311 -0.007,0.54643 -0.0499,0.12332 -0.0877,-0.0217 -0.084,-0.32222 z m -15.51781,-1.275011 c 0.8471,-0.851526 1.58117,-1.548229 1.63126,-1.548229 0.0501,0 -0.60201,0.696703 -1.44911,1.548229 -0.84711,0.851531 -1.58117,1.548231 -1.63126,1.548231 -0.0501,0 0.60201,-0.6967 1.44911,-1.548231 z m -68.019323,0.508751 c -0.09885,-0.25959 -0.07793,-0.28051 0.101965,-0.10196 0.124481,0.12355 0.180445,0.27053 0.124365,0.32661 -0.05608,0.0561 -0.157929,-0.045 -0.22633,-0.22465 z M 42.342232,99.255907 c 0,-0.03782 0.143439,-0.181261 0.318753,-0.318753 0.288893,-0.226564 0.295335,-0.220122 0.06877,0.06877 -0.237948,0.303407 -0.387524,0.399895 -0.387524,0.249982 z m 95.661458,-1.661604 c 0.004,-0.300538 0.0445,-0.401436 0.0907,-0.224214 0.0462,0.177221 0.0431,0.423116 -0.007,0.546434 -0.0499,0.123317 -0.0877,-0.02168 -0.084,-0.32222 z m -12.96778,0.0223 c 0,-0.03782 0.14344,-0.181261 0.31875,-0.318753 0.2889,-0.226564 0.29534,-0.220122 0.0688,0.06877 -0.23795,0.303407 -0.38753,0.399895 -0.38753,0.249982 z M 53.373695,97.192334 c -0.09885,-0.259593 -0.07793,-0.280514 0.101964,-0.101965 0.124482,0.123556 0.180446,0.270529 0.124365,0.326609 -0.05608,0.05608 -0.157929,-0.04501 -0.226329,-0.224644 z m 72.572935,-0.304307 c 0,-0.03782 0.14344,-0.181262 0.31876,-0.318754 0.28889,-0.226564 0.29533,-0.220121 0.0688,0.06877 -0.23795,0.303407 -0.38753,0.399895 -0.38753,0.249983 z M 137.2396,95.49964 c -0.10722,-0.200359 -0.15398,-0.36429 -0.10389,-0.36429 0.0501,0 0.17881,0.163931 0.28604,0.36429 0.10723,0.200359 0.15398,0.364289 0.10389,0.364289 -0.0501,0 -0.17881,-0.16393 -0.28604,-0.364289 z M 52.906623,94.330877 c 0,-0.141919 -0.102456,-0.297496 -0.227681,-0.345725 -0.125224,-0.04823 -0.05526,-0.0795 0.155481,-0.0695 0.275337,0.01308 0.35906,0.11036 0.297509,0.345725 -0.102392,0.391553 -0.225309,0.429468 -0.225309,0.0695 z M 135.41816,92.76747 c -0.16417,-0.106092 -0.18663,-0.177681 -0.0563,-0.179356 0.11931,-0.0015 0.26759,0.07918 0.3295,0.179356 0.13976,0.226138 0.0767,0.226138 -0.27321,0 z"
         id="path314" /><path
         style="fill:#7971ea;fill-opacity:1;stroke-width:0.182145"
         d="m 131.41097,187.75591 c 0.33985,-0.35062 0.65888,-0.6375 0.70897,-0.6375 0.0501,0 -0.18698,0.28688 -0.52682,0.6375 -0.33984,0.35063 -0.65888,0.63751 -0.70897,0.63751 -0.0501,0 0.18698,-0.28688 0.52682,-0.63751 z m -28.06406,-0.22768 -0.44158,-0.50089 0.5009,0.44157 c 0.46817,0.41272 0.58443,0.56022 0.44158,0.56022 -0.0326,0 -0.25803,-0.2254 -0.5009,-0.5009 z m 20.775,-2.06446 c -2.77779,-0.45053 -4.20713,-0.81873 -5.56062,-1.43243 -1.5084,-0.68394 -3.54852,-2.02771 -4.70748,-3.10068 -2.68332,-2.48422 -5.36238,-7.13348 -5.9706,-10.36139 -0.26864,-1.42575 -0.0717,-4.4297 0.37464,-5.71388 0.4724,-1.35921 1.39045,-3.0089 3.15082,-5.66184 1.82306,-2.74742 2.14145,-3.37776 2.02194,-4.00293 -0.1212,-0.63403 -0.24873,-0.70628 -1.39146,-0.78836 -1.61082,-0.1157 -3.9776,-0.4406 -5.39985,-0.74128 -1.27676,-0.26992 -1.78229,-0.39252 -4.37147,-1.06019 -2.515648,-0.64872 -4.471156,-1.39307 -7.976412,-3.03619 -1.031012,-0.48329 -1.91402,-0.87872 -1.962241,-0.87872 -0.153216,0 -3.05138,-1.69917 -3.917631,-2.29688 -0.458118,-0.3161 -1.113839,-0.71964 -1.457158,-0.89675 -0.73368,-0.37849 -2.952823,-1.99728 -3.726718,-2.71852 -0.297216,-0.27699 -0.868254,-0.73085 -1.268972,-1.00857 -0.645406,-0.4473 -3.564992,-3.46304 -4.48528,-4.633 -0.344853,-0.43841 -2.945476,-2.47142 -3.161434,-2.47142 -0.06318,0 -0.622552,-0.25488 -1.243056,-0.56642 -0.620503,-0.31153 -1.3331,-0.63152 -1.583549,-0.7111 -0.250449,-0.0796 -1.152065,-0.4046 -2.003591,-0.72228 -0.851527,-0.31769 -1.917073,-0.68806 -2.367881,-0.82305 -0.450808,-0.13499 -1.270459,-0.4066 -1.821447,-0.60358 -1.486227,-0.53132 -4.73951,-1.56045 -7.012569,-2.21831 -1.101976,-0.31894 -2.78226,-0.8642 -3.733966,-1.21169 -0.951706,-0.3475 -2.181182,-0.79506 -2.73217,-0.99458 -0.550988,-0.19953 -1.247691,-0.49672 -1.54823,-0.66043 -0.300538,-0.1637 -1.14442,-0.61196 -1.875292,-0.99611 -0.730872,-0.38416 -1.632488,-0.89996 -2.003591,-1.14622 -2.998011,-1.9895 -3.933659,-2.64592 -4.675679,-3.28029 -1.398391,-1.19552 -3.971148,-3.7667 -4.64756,-4.64469 -0.347303,-0.45081 -0.679972,-0.86064 -0.739265,-0.91073 -0.257183,-0.21726 -1.323613,-2.26744 -1.625818,-3.12558 l -0.330319,-0.93797 0.762251,-1.8388 c 3.021673,-7.28925 9.266006,-12.906854 16.700752,-15.024538 l 1.201188,-0.342143 -0.134483,0.735431 c -0.148628,0.812786 0.0036,1.338561 1.278036,4.413801 0.415157,1.001799 1.001983,2.914139 1.304058,4.249649 0.312174,1.38016 0.827188,3.03109 1.19324,3.82504 0.653889,1.41825 2.265047,3.46773 3.063482,3.89691 1.22381,0.65783 3.360476,1.98152 3.460966,2.14412 0.168855,0.27321 2.71315,1.43371 4.238706,1.93335 1.575424,0.51598 4.364469,0.73107 5.961701,0.45977 0.601078,-0.10209 2.609222,-0.47305 4.462544,-0.82435 1.853322,-0.3513 4.256133,-0.80535 5.339577,-1.009 1.083446,-0.20365 2.04188,-0.41476 2.129856,-0.46913 0.481151,-0.29737 5.750496,-1.22205 7.102141,-1.24631 l 1.54823,-0.0278 0.273217,1.12539 c 0.150269,0.61897 0.33469,1.18589 0.409825,1.25984 0.07514,0.0739 0.136609,0.28398 0.136609,0.46676 0,0.18278 0.201045,0.92729 0.446769,1.65448 0.245725,0.72719 0.491551,1.7602 0.546283,2.29557 0.05473,0.53537 0.136969,1.03402 0.182752,1.10809 0.04578,0.0741 0.1329,0.94749 0.193596,1.94091 0.121685,1.99164 0.954297,5.05439 1.621825,5.96587 0.208148,0.28422 1.001118,1.14774 1.762155,1.91893 4.214563,4.27081 10.258943,4.31905 15.464673,0.12344 1.56109,-1.25817 2.0051,-2.13434 1.99925,-3.94516 -0.01,-2.97517 -1.11574,-5.23348 -4.11677,-8.40489 -1.6248,-1.71704 -2.23016,-2.52819 -3.16002,-4.23422 -0.32761,-0.60107 -0.74835,-1.34648 -0.93497,-1.65645 l -0.33932,-0.56359 1.03128,-0.23079 c 3.18903,-0.71367 4.8996,-2.06777 11.6851,-9.25003 4.09825,-4.33788 6.33946,-6.086196 9.55008,-7.449771 1.18107,-0.501612 4.01133,-1.340639 4.52233,-1.340639 0.3096,0 1.45781,1.651595 2.2638,3.256284 0.40242,0.801205 0.48932,1.260652 0.56528,2.989014 0.1047,2.382132 0.31113,3.460552 0.88912,4.644952 1.26838,2.59914 4.96149,4.39998 7.9223,3.86308 1.46097,-0.26492 2.19623,-0.59393 3.93273,-1.75975 1.75141,-1.17583 2.71152,-1.46119 5.20191,-1.54608 l 1.86192,-0.0635 0.59561,1.48582 c 1.71808,4.28595 1.8123,9.89147 0.24107,14.34307 -0.29261,0.82902 -0.71877,1.90984 -0.94704,2.40181 l -0.41502,0.89449 -1.73037,-0.013 c -4.12713,-0.0311 -7.66851,-0.74841 -13.843,-2.80401 -7.58625,-2.5256 -11.34375,-2.05269 -13.76506,1.73242 -1.62841,2.54561 -2.2413,7.37571 -1.63154,12.85773 0.30111,2.70708 0.30106,3.00452 -9.1e-4,6.01077 -0.42575,4.2375 -0.43011,7.01533 -0.0134,8.53603 0.63228,2.30735 2.1569,4.68842 4.9087,7.66614 0.77942,0.84341 1.36255,1.80586 2.56073,4.22645 2.57378,5.19976 3.38786,8.12029 3.38786,12.15424 0,3.29966 -0.63874,6.01649 -2.09745,8.92135 -0.72219,1.43816 -0.99718,1.699 -2.3796,2.25712 -2.27352,0.91788 -5.47333,1.15557 -8.64064,0.64186 z M 91.315914,168.58519 c -0.226565,-0.28889 -0.220122,-0.29534 0.06877,-0.0688 0.303408,0.23795 0.399895,0.38752 0.249983,0.38752 -0.03782,0 -0.181262,-0.14344 -0.318753,-0.31875 z M 77.472919,158.0208 c -0.226565,-0.2889 -0.220122,-0.29534 0.06877,-0.0688 0.175315,0.13749 0.318753,0.28093 0.318753,0.31875 0,0.14991 -0.149575,0.0534 -0.387523,-0.24998 z m 52.298751,-17.41805 c 0,-0.0378 0.14344,-0.18126 0.31876,-0.31876 0.28889,-0.22656 0.29533,-0.22012 0.0688,0.0688 -0.23795,0.30341 -0.38753,0.3999 -0.38753,0.24999 z m 23.86095,-12.40814 c 0.23529,-0.25045 0.46878,-0.45536 0.51887,-0.45536 0.0501,0 -0.10144,0.20491 -0.33672,0.45536 -0.23529,0.25045 -0.46877,0.45536 -0.51886,0.45536 -0.0501,0 0.10143,-0.20491 0.33671,-0.45536 z"
         id="path312" /><path
         style="fill:#8c8c8c;fill-opacity:1;stroke-width:0.182145"
         d="m 126.54207,185.71717 c 0.17722,-0.0462 0.42312,-0.0431 0.54644,0.007 0.12331,0.0499 -0.0217,0.0877 -0.32222,0.084 -0.30054,-0.004 -0.40144,-0.0445 -0.22422,-0.0907 z m 1.54689,-0.003 c 0.22657,-0.0436 0.55443,-0.0419 0.72858,0.004 0.17414,0.0456 -0.0112,0.0812 -0.41195,0.0792 -0.40072,-0.002 -0.5432,-0.0393 -0.31663,-0.0829 z m -4.00931,-0.17395 c 0.12523,-0.0505 0.33014,-0.0505 0.45536,0 0.12523,0.0505 0.0228,0.0919 -0.22768,0.0919 -0.25045,0 -0.3529,-0.0413 -0.22768,-0.0919 z m -11.06529,-5.25264 c -0.44243,-0.45081 -0.76344,-0.81965 -0.71335,-0.81965 0.0501,0 0.45306,0.36884 0.8955,0.81965 0.44243,0.45081 0.76344,0.81965 0.71335,0.81965 -0.0501,0 -0.45306,-0.36884 -0.8955,-0.81965 z m -1.66253,-2.04912 c -0.22657,-0.2889 -0.22012,-0.29534 0.0688,-0.0688 0.30341,0.23795 0.39989,0.38753 0.24998,0.38753 -0.0378,0 -0.18126,-0.14344 -0.31875,-0.31875 z m -3.78743,-9.07688 c 0.009,-0.21219 0.0519,-0.25535 0.11005,-0.11005 0.0526,0.13149 0.0461,0.28859 -0.0144,0.34911 -0.0605,0.0605 -0.10358,-0.047 -0.0957,-0.23906 z m 0.0316,-1.44198 c 0.002,-0.40072 0.0393,-0.5432 0.0829,-0.31663 0.0436,0.22657 0.0419,0.55443 -0.004,0.72858 -0.0456,0.17415 -0.0812,-0.0112 -0.0792,-0.41195 z m 0.17172,-1.27501 c 0.004,-0.30054 0.0445,-0.40144 0.0907,-0.22422 0.0462,0.17722 0.0431,0.42312 -0.007,0.54644 -0.0499,0.12331 -0.0877,-0.0217 -0.084,-0.32222 z m 24.00412,-8.56497 c -0.19248,-0.23193 -0.18122,-0.25859 0.0688,-0.16266 0.16444,0.0631 0.29898,0.18793 0.29898,0.27739 0,0.23423 -0.10543,0.20133 -0.36775,-0.11473 z m -1.19193,-1.40745 -0.53498,-0.59197 0.59197,0.53497 c 0.5518,0.49867 0.67569,0.64897 0.53498,0.64897 -0.0314,0 -0.29774,-0.26639 -0.59197,-0.59197 z m -1.09872,-1.27502 -0.34698,-0.40982 0.40982,0.34698 c 0.38514,0.32608 0.49275,0.47267 0.34699,0.47267 -0.0346,0 -0.21899,-0.18442 -0.40983,-0.40983 z m -16.3336,-0.30415 c -0.0792,-0.30297 -0.0555,-0.37408 0.0796,-0.23892 0.10584,0.10585 0.15661,0.29996 0.1128,0.43137 -0.0455,0.13641 -0.12803,0.0539 -0.19244,-0.19245 z m -1.45374,-0.49952 c 0.12523,-0.0505 0.33014,-0.0505 0.45537,0 0.12522,0.0505 0.0228,0.0919 -0.22768,0.0919 -0.25045,0 -0.35291,-0.0413 -0.22769,-0.0919 z m 16.59747,-0.74456 c -0.22656,-0.28889 -0.22012,-0.29533 0.0688,-0.0688 0.17532,0.1375 0.31875,0.28094 0.31875,0.31876 0,0.14991 -0.14957,0.0534 -0.38752,-0.24999 z m -0.5232,-0.77411 c -0.10723,-0.20036 -0.15398,-0.36429 -0.10389,-0.36429 0.0501,0 0.17881,0.16393 0.28604,0.36429 0.10722,0.20036 0.15398,0.36429 0.10389,0.36429 -0.0501,0 -0.17881,-0.16393 -0.28604,-0.36429 z m -25.89869,-0.30657 c 0.13148,-0.0526 0.28858,-0.0461 0.34911,0.0144 0.0605,0.0605 -0.0471,0.10358 -0.23907,0.0957 -0.21219,-0.009 -0.25535,-0.0519 -0.11004,-0.11005 z m 24.27377,-3.98901 c 0.009,-0.21219 0.0519,-0.25535 0.11004,-0.11004 0.0526,0.13148 0.0461,0.28858 -0.0144,0.34911 -0.0605,0.0605 -0.10357,-0.0471 -0.0957,-0.23907 z m -0.13823,-2.07948 c 0,-0.65117 0.0331,-0.91756 0.0735,-0.59197 0.0404,0.32558 0.0404,0.85835 0,1.18394 -0.0404,0.32558 -0.0735,0.0592 -0.0735,-0.59197 z m -37.239042,0.22768 c -0.226564,-0.28889 -0.220122,-0.29534 0.06877,-0.0688 0.175314,0.13749 0.318753,0.28093 0.318753,0.31875 0,0.14991 -0.149575,0.0534 -0.387524,-0.24998 z m -2.914315,-1.82145 c -0.226564,-0.28889 -0.220121,-0.29533 0.06877,-0.0688 0.303408,0.23795 0.399895,0.38752 0.249983,0.38752 -0.03782,0 -0.181262,-0.14343 -0.318754,-0.31875 z m 40.323137,-1.22948 c 0.002,-0.40071 0.0393,-0.5432 0.0829,-0.31662 0.0436,0.22657 0.0419,0.55443 -0.004,0.72857 -0.0456,0.17415 -0.0812,-0.0112 -0.0792,-0.41195 z m 0.17847,-2.09466 c 0,-0.35063 0.0375,-0.49407 0.0833,-0.31875 0.0458,0.17531 0.0458,0.46219 0,0.6375 -0.0458,0.17532 -0.0833,0.0319 -0.0833,-0.31875 z m -45.504656,-0.59197 -0.346984,-0.40982 0.409826,0.34698 c 0.385134,0.32608 0.492745,0.47267 0.346983,0.47267 -0.03456,0 -0.218985,-0.18443 -0.409825,-0.40983 z m 45.690476,-1.1384 c 0.002,-0.40072 0.0393,-0.5432 0.0829,-0.31663 0.0436,0.22657 0.0419,0.55443 -0.004,0.72858 -0.0456,0.17414 -0.0812,-0.0112 -0.0792,-0.41195 z m -47.426779,-0.77412 c -0.226565,-0.28889 -0.220122,-0.29533 0.06877,-0.0688 0.175315,0.13749 0.318753,0.28093 0.318753,0.31875 0,0.14992 -0.149575,0.0534 -0.387523,-0.24998 z m 47.612599,-0.95626 c 0,-0.45081 0.0355,-0.63523 0.0789,-0.40982 0.0434,0.2254 0.0434,0.59424 0,0.81965 -0.0434,0.2254 -0.0789,0.041 -0.0789,-0.40983 z m -48.513875,0.0455 -0.441575,-0.5009 0.500898,0.44158 c 0.468165,0.41272 0.584428,0.56022 0.441575,0.56022 -0.03263,0 -0.25803,-0.22541 -0.500898,-0.5009 z m -1.466605,-1.6393 c -0.226564,-0.2889 -0.220122,-0.29534 0.06877,-0.0688 0.303407,0.23794 0.399895,0.38752 0.249982,0.38752 -0.03782,0 -0.181261,-0.14344 -0.318753,-0.31875 z m 49.77749,-0.22768 c 0,-0.25045 0.0413,-0.35291 0.0919,-0.22769 0.0505,0.12523 0.0505,0.33014 0,0.45537 -0.0505,0.12522 -0.0919,0.0228 -0.0919,-0.22768 z m -52.020341,-1.37188 c -0.194461,-0.14709 -0.265971,-0.26743 -0.15891,-0.26743 0.107059,0 0.296691,0.12295 0.421404,0.27322 0.283636,0.34176 0.19441,0.33979 -0.262494,-0.006 z m 51.844941,-0.17635 c 0.004,-0.30054 0.0445,-0.40144 0.0907,-0.22422 0.0462,0.17722 0.0431,0.42312 -0.007,0.54644 -0.0499,0.12331 -0.0877,-0.0217 -0.084,-0.32222 z m -0.15788,-2.55003 c 7.3e-4,-0.70126 0.0337,-0.96581 0.0732,-0.58791 0.0394,0.37791 0.0388,0.95167 -0.001,1.27501 -0.0402,0.32336 -0.0725,0.0142 -0.0717,-0.6871 z m -0.0454,-1.65448 c 0.009,-0.21219 0.0519,-0.25535 0.11004,-0.11005 0.0526,0.13149 0.0461,0.28859 -0.0144,0.34912 -0.0605,0.0605 -0.10357,-0.0471 -0.0957,-0.23907 z m 0.0316,-1.25983 c 0.002,-0.40072 0.0393,-0.54321 0.0829,-0.31663 0.0436,0.22657 0.0419,0.55443 -0.004,0.72857 -0.0456,0.17415 -0.0812,-0.0112 -0.0792,-0.41194 z M 56.515444,128.5251 c 0.131485,-0.0526 0.288585,-0.0461 0.349111,0.0144 0.06052,0.0605 -0.04706,0.10357 -0.239064,0.0957 -0.21219,-0.009 -0.255349,-0.0519 -0.110047,-0.11004 z m -4.973536,-1.69493 c -0.06381,-0.10325 0.0093,-0.13379 0.171394,-0.0716 0.315551,0.12109 0.373285,0.25165 0.111283,0.25165 -0.09427,0 -0.221473,-0.081 -0.282677,-0.18006 z M 153.58717,123.2467 c 0.12522,-0.0505 0.33014,-0.0505 0.45536,0 0.12522,0.0505 0.0228,0.0919 -0.22768,0.0919 -0.25045,0 -0.35291,-0.0414 -0.22768,-0.0919 z m 1.36608,-0.005 c 0.17532,-0.0458 0.4622,-0.0458 0.63751,0 0.17531,0.0458 0.0319,0.0833 -0.31875,0.0833 -0.35063,0 -0.49407,-0.0375 -0.31876,-0.0833 z m 1.27848,-7.3e-4 c 0.17722,-0.0462 0.42312,-0.0431 0.54644,0.007 0.12331,0.0499 -0.0217,0.0877 -0.32222,0.084 -0.30054,-0.004 -0.40144,-0.0445 -0.22422,-0.0907 z m -5.74102,-0.35865 c 0.12522,-0.0505 0.33014,-0.0505 0.45536,0 0.12522,0.0505 0.0228,0.0919 -0.22768,0.0919 -0.25045,0 -0.35291,-0.0413 -0.22768,-0.0919 z m -0.91072,-0.18214 c 0.12522,-0.0505 0.33013,-0.0505 0.45536,0 0.12522,0.0505 0.0228,0.0919 -0.22768,0.0919 -0.25045,0 -0.35291,-0.0413 -0.22768,-0.0919 z M 41.22613,120.31685 c -0.226564,-0.28889 -0.220122,-0.29533 0.06877,-0.0688 0.175315,0.13749 0.318754,0.28093 0.318754,0.31875 0,0.14992 -0.149576,0.0534 -0.387524,-0.24998 z m 90.33284,-1.08068 c 0.13148,-0.0526 0.28858,-0.0461 0.34911,0.0144 0.0605,0.0605 -0.0471,0.10357 -0.23907,0.0957 -0.21219,-0.009 -0.25534,-0.0519 -0.11004,-0.11004 z m 0.89934,-0.17835 c 0.12522,-0.0505 0.33013,-0.0505 0.45536,0 0.12522,0.0505 0.0228,0.0919 -0.22768,0.0919 -0.25045,0 -0.35291,-0.0414 -0.22768,-0.0919 z m 1.09286,-0.18215 c 0.12523,-0.0505 0.33014,-0.0505 0.45537,0 0.12522,0.0505 0.0228,0.0919 -0.22768,0.0919 -0.25045,0 -0.35291,-0.0413 -0.22769,-0.0919 z m -95.603644,-1.65528 c -0.226564,-0.28889 -0.220122,-0.29533 0.06877,-0.0688 0.175315,0.13749 0.318754,0.28093 0.318754,0.31875 0,0.14992 -0.149576,0.0534 -0.387524,-0.24998 z m -1.275013,-1.45716 c -0.226564,-0.28889 -0.220122,-0.29533 0.06877,-0.0688 0.303407,0.23795 0.399895,0.38753 0.249982,0.38753 -0.03782,0 -0.181261,-0.14344 -0.318753,-0.31876 z"
         id="path310" /><path
         style="fill:#767676;fill-opacity:1;stroke-width:0.182145"
         d="m 116.25882,193.36905 c 0.13148,-0.0526 0.28858,-0.0461 0.34911,0.0144 0.0605,0.0605 -0.0471,0.10357 -0.23907,0.0957 -0.21219,-0.009 -0.25535,-0.0519 -0.11004,-0.11004 z m 12.93227,-7.65008 c 0.13148,-0.0526 0.28858,-0.0462 0.34911,0.0144 0.0605,0.0605 -0.0471,0.10358 -0.23907,0.0957 -0.21219,-0.009 -0.25535,-0.0519 -0.11004,-0.11005 z m -6.37507,-0.36429 c 0.13149,-0.0526 0.28859,-0.0462 0.34911,0.0144 0.0605,0.0605 -0.047,0.10358 -0.23906,0.0957 -0.21219,-0.009 -0.25535,-0.0519 -0.11005,-0.11005 z M 107.5644,169.70841 c 0.009,-0.21219 0.0519,-0.25534 0.11005,-0.11004 0.0526,0.13148 0.0461,0.28858 -0.0144,0.34911 -0.0605,0.0605 -0.10358,-0.0471 -0.0957,-0.23907 z m 0,-1.09286 c 0.009,-0.21219 0.0519,-0.25535 0.11005,-0.11005 0.0526,0.13148 0.0461,0.28859 -0.0144,0.34911 -0.0605,0.0605 -0.10358,-0.0471 -0.0957,-0.23906 z m -28.710732,-9.22867 -0.720009,-0.77411 0.774115,0.72001 c 0.71992,0.6696 0.857816,0.82822 0.720009,0.82822 -0.02976,0 -0.37811,-0.34835 -0.774115,-0.77412 z m 52.664742,-1.93997 c -0.23544,-0.26016 -0.2581,-0.38033 -0.0912,-0.4835 0.14188,-0.0877 0.17519,-0.0613 0.0922,0.073 -0.0715,0.11566 -0.0519,0.21029 0.0434,0.21029 0.0954,0 0.22059,0.12295 0.27825,0.27322 0.1395,0.36352 0.055,0.34441 -0.32272,-0.073 z m -1.30868,-1.52078 -0.34698,-0.40982 0.40982,0.34698 c 0.38513,0.32608 0.49275,0.47267 0.34698,0.47267 -0.0346,0 -0.21898,-0.18442 -0.40982,-0.40983 z m -19.24449,-1.53225 c 0.12522,-0.0505 0.33013,-0.0505 0.45536,0 0.12522,0.0505 0.0228,0.0919 -0.22768,0.0919 -0.25045,0 -0.35291,-0.0413 -0.22768,-0.0919 z m -2.73217,-0.36429 c 0.12522,-0.0505 0.33013,-0.0505 0.45536,0 0.12522,0.0505 0.0228,0.0919 -0.22768,0.0919 -0.25045,0 -0.35291,-0.0413 -0.22768,-0.0919 z m -2.91432,-0.54643 c 0.12523,-0.0505 0.33014,-0.0505 0.45536,0 0.12523,0.0505 0.0228,0.0919 -0.22768,0.0919 -0.25045,0 -0.3529,-0.0413 -0.22768,-0.0919 z m 20.83879,-5.52586 c 0,-0.25044 0.0413,-0.3529 0.0919,-0.22768 0.0505,0.12523 0.0505,0.33014 0,0.45536 -0.0505,0.12523 -0.0919,0.0228 -0.0919,-0.22768 z m -0.0144,-3.38485 c 0.009,-0.21219 0.0519,-0.25535 0.11004,-0.11005 0.0526,0.13149 0.0461,0.28859 -0.0144,0.34911 -0.0605,0.0605 -0.10357,-0.047 -0.0957,-0.23906 z m -42.113043,-0.94108 c -0.226564,-0.28889 -0.220122,-0.29534 0.06877,-0.0688 0.175315,0.13749 0.318754,0.28093 0.318754,0.31875 0,0.14991 -0.149576,0.0534 -0.387524,-0.24998 z m -1.08342,-0.91073 -0.441575,-0.50089 0.500897,0.44157 c 0.468165,0.41272 0.584428,0.56022 0.441575,0.56022 -0.03262,0 -0.258029,-0.2254 -0.500897,-0.5009 z m 43.406473,-0.0455 c 0,-0.35063 0.0375,-0.49407 0.0833,-0.31875 0.0458,0.17531 0.0458,0.46219 0,0.6375 -0.0458,0.17532 -0.0833,0.0319 -0.0833,-0.31875 z m 0.1754,-1.73038 c 0.004,-0.30053 0.0445,-0.40143 0.0907,-0.22421 0.0462,0.17722 0.0431,0.42312 -0.007,0.54643 -0.0499,0.12332 -0.0877,-0.0217 -0.084,-0.32222 z m 0.19257,-1.45715 c 0.002,-0.40072 0.0393,-0.5432 0.0829,-0.31663 0.0436,0.22657 0.0419,0.55443 -0.004,0.72858 -0.0456,0.17414 -0.0812,-0.0112 -0.0792,-0.41195 z m 0.15059,-1.10805 c 0.009,-0.21219 0.0519,-0.25535 0.11004,-0.11005 0.0526,0.13149 0.0461,0.28859 -0.0144,0.34912 -0.0605,0.0605 -0.10357,-0.0471 -0.0957,-0.23907 z m -0.18215,-1.27501 c 0.009,-0.21219 0.0519,-0.25535 0.11005,-0.11005 0.0526,0.13149 0.0461,0.28859 -0.0144,0.34911 -0.0605,0.0605 -0.10358,-0.0471 -0.0957,-0.23906 z m -51.402407,-1.66966 c -0.226565,-0.28889 -0.220122,-0.29534 0.06877,-0.0688 0.303408,0.23795 0.399895,0.38752 0.249983,0.38752 -0.03782,0 -0.181261,-0.14344 -0.318753,-0.31875 z m 51.052497,-1.5027 c 0,-0.25044 0.0413,-0.3529 0.0919,-0.22768 0.0505,0.12523 0.0505,0.33014 0,0.45537 -0.0505,0.12522 -0.0919,0.0228 -0.0919,-0.22769 z m 0.36429,-8.19651 c 0,-0.25044 0.0414,-0.3529 0.0919,-0.22768 0.0505,0.12523 0.0505,0.33014 0,0.45537 -0.0505,0.12522 -0.0919,0.0228 -0.0919,-0.22769 z m -81.106368,-2.1402 c -0.226564,-0.28889 -0.220122,-0.29533 0.06877,-0.0688 0.175315,0.1375 0.318754,0.28094 0.318754,0.31876 0,0.14991 -0.149576,0.0534 -0.387524,-0.24999 z m 107.454438,-0.3521 c 0.13148,-0.0526 0.28858,-0.0462 0.34911,0.0144 0.0605,0.0605 -0.0471,0.10358 -0.23907,0.0957 -0.21218,-0.009 -0.25534,-0.0519 -0.11004,-0.11005 z m -1.55615,-0.18395 c 0.17722,-0.0462 0.42312,-0.0431 0.54643,0.007 0.12332,0.0499 -0.0217,0.0877 -0.32221,0.084 -0.30054,-0.004 -0.40144,-0.0445 -0.22422,-0.0907 z M 42.318998,121.40972 c -0.226564,-0.28889 -0.220122,-0.29534 0.06877,-0.0688 0.175315,0.13749 0.318754,0.28093 0.318754,0.31875 0,0.14991 -0.149576,0.0534 -0.387524,-0.24998 z m 88.181252,-1.57428 c 0,-0.0394 0.12721,-0.1204 0.28268,-0.18006 0.16209,-0.0622 0.23521,-0.0317 0.17139,0.0716 -0.10696,0.17307 -0.45407,0.25599 -0.45407,0.10847 z m 6.52306,-0.59927 c 0.13148,-0.0526 0.28858,-0.0461 0.34911,0.0144 0.0605,0.0605 -0.0471,0.10357 -0.23907,0.0957 -0.21219,-0.009 -0.25534,-0.0519 -0.11004,-0.11004 z m -97.969487,-0.74077 -0.627701,-0.68304 0.683042,0.6277 c 0.635762,0.58425 0.766791,0.73839 0.627702,0.73839 -0.03044,0 -0.337807,-0.30737 -0.683043,-0.68305 z m 96.694467,0.55862 c 0.13149,-0.0526 0.28859,-0.0461 0.34912,0.0144 0.0605,0.0605 -0.0471,0.10358 -0.23907,0.0957 -0.21219,-0.009 -0.25535,-0.0519 -0.11005,-0.11005 z m -1.374,-0.18394 c 0.17722,-0.0462 0.42312,-0.0431 0.54644,0.007 0.12331,0.0499 -0.0217,0.0877 -0.32222,0.084 -0.30054,-0.004 -0.40144,-0.0445 -0.22422,-0.0907 z"
         id="path308" /><path
         style="fill:#606060;fill-opacity:1;stroke-width:0.182145"
         d="m 117.16142,193.36147 c 0.32737,-0.0405 0.81917,-0.0397 1.09286,0.002 0.2737,0.0416 0.006,0.0747 -0.59523,0.0737 -0.60107,-0.001 -0.82501,-0.035 -0.49763,-0.0756 z m 2.92243,-0.17457 c 0.13149,-0.0526 0.28859,-0.0461 0.34911,0.0144 0.0605,0.0605 -0.047,0.10358 -0.23906,0.0957 -0.21219,-0.009 -0.25535,-0.0519 -0.11005,-0.11005 z m 11.23605,-5.52206 c 0.59481,-0.60108 1.12245,-1.09287 1.17254,-1.09287 0.0501,0 -0.39559,0.49179 -0.99039,1.09287 -0.59481,0.60108 -1.12245,1.09287 -1.17254,1.09287 -0.0501,0 0.39559,-0.49179 0.99039,-1.09287 z m -27.87383,-0.22768 -1.08717,-1.1384 1.1384,1.08716 c 1.05749,1.00989 1.22176,1.18965 1.08717,1.18965 -0.0282,0 -0.54046,-0.51229 -1.1384,-1.13841 z m 22.81932,-1.54338 c 0.32558,-0.0404 0.85835,-0.0404 1.18394,0 0.32558,0.0404 0.0592,0.0735 -0.59197,0.0735 -0.65117,0 -0.91756,-0.0331 -0.59197,-0.0735 z m -1.6393,-0.17102 c 0.12522,-0.0505 0.33013,-0.0505 0.45536,0 0.12522,0.0505 0.0228,0.0919 -0.22768,0.0919 -0.25045,0 -0.35291,-0.0413 -0.22768,-0.0919 z m 5.11143,-0.004 c 0.13149,-0.0526 0.28859,-0.0461 0.34911,0.0144 0.0605,0.0605 -0.0471,0.10357 -0.23906,0.0957 -0.21219,-0.009 -0.25535,-0.0519 -0.11005,-0.11004 z m -17.19582,-5.74975 -0.34699,-0.40983 0.40983,0.34699 c 0.38513,0.32608 0.49274,0.47266 0.34698,0.47266 -0.0346,0 -0.21898,-0.18442 -0.40982,-0.40982 z m -1.37202,-1.73037 c -0.22656,-0.2889 -0.22012,-0.29534 0.0688,-0.0688 0.17532,0.1375 0.31876,0.28094 0.31876,0.31876 0,0.14991 -0.14958,0.0534 -0.38753,-0.24998 z m -3.42313,-7.07329 c 0.009,-0.21219 0.0519,-0.25535 0.11004,-0.11005 0.0526,0.13149 0.0461,0.28859 -0.0144,0.34912 -0.0605,0.0605 -0.10357,-0.0471 -0.0957,-0.23907 z m -16.963641,-3.30896 -0.627701,-0.68304 0.683042,0.6277 c 0.635761,0.58425 0.766791,0.73838 0.627702,0.73838 -0.03044,0 -0.337808,-0.30737 -0.683043,-0.68304 z m 16.599351,-0.15179 c 0.009,-0.21219 0.0519,-0.25535 0.11004,-0.11004 0.0526,0.13148 0.0461,0.28858 -0.0144,0.34911 -0.0605,0.0605 -0.10357,-0.0471 -0.0957,-0.23907 z M 77.290774,157.65651 c -0.226564,-0.28889 -0.220122,-0.29534 0.06877,-0.0688 0.175314,0.13749 0.318753,0.28093 0.318753,0.31875 0,0.14991 -0.149576,0.0534 -0.387524,-0.24998 z m 53.784436,-0.83483 c -0.3063,-0.32604 -0.3349,-0.42501 -0.12283,-0.42501 0.15205,0 0.23529,0.0412 0.18498,0.0915 -0.0503,0.0503 0.0444,0.24156 0.21038,0.42501 0.44366,0.49024 0.1958,0.40705 -0.27253,-0.0915 z m -1.04763,-1.25984 -0.34698,-0.40982 0.40983,0.34698 c 0.38513,0.32608 0.49274,0.47267 0.34698,0.47267 -0.0346,0 -0.21899,-0.18442 -0.40983,-0.40983 z m -0.78406,-0.919 c -0.23039,-0.38366 -0.22651,-0.38754 0.0871,-0.0871 0.18055,0.17293 0.28906,0.35362 0.24114,0.40154 -0.0479,0.0479 -0.19564,-0.0936 -0.32827,-0.31441 z m -20.08835,-0.4349 c 0.13149,-0.0526 0.28859,-0.0461 0.34911,0.0144 0.0605,0.0605 -0.047,0.10358 -0.23906,0.0957 -0.21219,-0.009 -0.25535,-0.0519 -0.11005,-0.11004 z m 18.61291,-1.69702 c -0.10723,-0.20036 -0.15398,-0.36429 -0.10389,-0.36429 0.0501,0 0.17881,0.16393 0.28604,0.36429 0.10722,0.20036 0.15398,0.36429 0.10389,0.36429 -0.0501,0 -0.17881,-0.16393 -0.28604,-0.36429 z m -0.44365,-0.85733 c -0.0989,-0.25959 -0.0779,-0.28051 0.10196,-0.10197 0.12449,0.12356 0.18045,0.27053 0.12437,0.32661 -0.0561,0.0561 -0.15793,-0.045 -0.22633,-0.22464 z m -55.93697,-1.55609 -0.903877,-0.95626 0.95626,0.90388 c 0.888573,0.8399 1.039791,1.00864 0.903876,1.00864 -0.02881,0 -0.459128,-0.43031 -0.956259,-0.95626 z m 23.869088,0.22977 c -0.06381,-0.10325 0.0093,-0.13378 0.171394,-0.0716 0.315551,0.12108 0.373286,0.25164 0.111283,0.25164 -0.09427,0 -0.221473,-0.081 -0.282677,-0.18006 z m 30.934672,-4.10034 c 7.3e-4,-0.80144 0.0327,-1.10664 0.0712,-0.67823 0.0385,0.42841 0.0379,1.08413 -0.001,1.45716 -0.0391,0.37302 -0.0706,0.0225 -0.07,-0.77893 z m 1.26715,-0.27322 c 0,-0.55098 0.0341,-0.77639 0.0759,-0.5009 0.0417,0.2755 0.0417,0.72631 0,1.0018 -0.0417,0.27549 -0.0759,0.0501 -0.0759,-0.5009 z M 61.251126,145.465 c 0.131484,-0.0526 0.288586,-0.0462 0.349111,0.0144 0.06052,0.0605 -0.04706,0.10357 -0.239065,0.0957 -0.21219,-0.009 -0.255349,-0.0519 -0.110046,-0.11005 z m -3.278604,-0.36429 c 0.131484,-0.0526 0.288584,-0.0461 0.349111,0.0144 0.06052,0.0605 -0.04706,0.10358 -0.239065,0.0957 -0.21219,-0.009 -0.255349,-0.0519 -0.110046,-0.11005 z m 27.696907,-0.19433 c -0.226564,-0.28889 -0.220122,-0.29533 0.06877,-0.0688 0.175315,0.13749 0.318754,0.28093 0.318754,0.31875 0,0.14992 -0.149576,0.0534 -0.387524,-0.24998 z m 40.655871,-1.4268 c 0.009,-0.21219 0.0519,-0.25535 0.11005,-0.11004 0.0526,0.13148 0.0461,0.28858 -0.0144,0.34911 -0.0605,0.0605 -0.10358,-0.0471 -0.0957,-0.23907 z m 0.21003,-1.53305 c 0,-0.35063 0.0375,-0.49407 0.0833,-0.31875 0.0458,0.17531 0.0458,0.46219 0,0.6375 -0.0458,0.17532 -0.0833,0.0319 -0.0833,-0.31875 z M 80.569378,140.8992 c -0.226564,-0.28889 -0.220122,-0.29534 0.06877,-0.0688 0.175314,0.13749 0.318753,0.28093 0.318753,0.31875 0,0.14991 -0.149576,0.0534 -0.387524,-0.24998 z m 46.134592,-0.40983 c 0,-0.25045 0.0414,-0.3529 0.0919,-0.22768 0.0505,0.12523 0.0505,0.33014 0,0.45536 -0.0505,0.12523 -0.0919,0.0228 -0.0919,-0.22768 z m 2.88556,0.12515 c 0,-0.0313 0.26638,-0.29773 0.59197,-0.59197 l 0.59197,-0.53497 -0.53498,0.59197 c -0.49867,0.5518 -0.64896,0.67569 -0.64896,0.53497 z m -2.69666,-1.49123 c 0.004,-0.30054 0.0445,-0.40144 0.0907,-0.22422 0.0462,0.17722 0.0431,0.42312 -0.007,0.54644 -0.0499,0.12331 -0.0877,-0.0217 -0.084,-0.32222 z m -48.403491,-0.5009 -0.720009,-0.77411 0.774115,0.72 c 0.425763,0.39601 0.774115,0.74436 0.774115,0.77412 0,0.13781 -0.158621,-9e-5 -0.828221,-0.72001 z m -37.701078,-1.45716 -1.087166,-1.1384 1.138404,1.08717 c 1.057481,1.00988 1.221753,1.18964 1.087167,1.18964 -0.02818,0 -0.540464,-0.51229 -1.138405,-1.13841 z m 86.083439,0.66787 c 0.009,-0.21219 0.0519,-0.25535 0.11004,-0.11005 0.0526,0.13149 0.0461,0.28859 -0.0144,0.34911 -0.0605,0.0605 -0.10357,-0.047 -0.0957,-0.23906 z m -0.18215,-1.27502 c 0.009,-0.21219 0.0519,-0.25534 0.11005,-0.11004 0.0526,0.13148 0.0461,0.28858 -0.0144,0.34911 -0.0605,0.0605 -0.10358,-0.0471 -0.0957,-0.23907 z m -0.18214,-1.09286 c 0.009,-0.21219 0.0519,-0.25535 0.11004,-0.11005 0.0526,0.13148 0.0461,0.28859 -0.0144,0.34911 -0.0605,0.0605 -0.10357,-0.0471 -0.0957,-0.23906 z m -55.658288,-2.0774 c -0.06381,-0.10325 0.0093,-0.13379 0.171395,-0.0716 0.315551,0.12109 0.373285,0.25165 0.111283,0.25165 -0.09427,0 -0.221473,-0.081 -0.282678,-0.18006 z m -3.006676,-1.09496 c -0.164165,-0.10609 -0.186631,-0.17768 -0.05629,-0.17935 0.119312,-0.001 0.267589,0.0792 0.329504,0.17935 0.139759,0.22614 0.0767,0.22614 -0.273217,0 z m -1.49131,-0.48871 c 0.131485,-0.0526 0.288587,-0.0461 0.349111,0.0144 0.06052,0.0605 -0.04706,0.10357 -0.239064,0.0957 -0.21219,-0.009 -0.255349,-0.0519 -0.110047,-0.11005 z m 87.281444,-3.79169 c 0.54415,-0.55098 1.03034,-1.00179 1.08043,-1.00179 0.0501,0 -0.35414,0.45081 -0.89828,1.00179 -0.54414,0.55099 -1.03034,1.0018 -1.08042,1.0018 -0.0501,0 0.35413,-0.45081 0.89827,-1.0018 z m -27.27944,0.27322 c 0,-0.35063 0.0375,-0.49407 0.0833,-0.31875 0.0458,0.17531 0.0458,0.46219 0,0.6375 -0.0458,0.17532 -0.0833,0.0319 -0.0833,-0.31875 z m -73.844999,-1.03515 c 0.131485,-0.0526 0.288585,-0.0461 0.349112,0.0144 0.06052,0.0605 -0.04706,0.10358 -0.239065,0.0957 -0.21219,-0.009 -0.255349,-0.0519 -0.110047,-0.11005 z m 101.716409,-3.82617 c 0.17532,-0.0458 0.4622,-0.0458 0.63751,0 0.17532,0.0458 0.0319,0.0833 -0.31875,0.0833 -0.35063,0 -0.49407,-0.0375 -0.31876,-0.0833 z m 1.46063,-7.3e-4 c 0.17722,-0.0462 0.42311,-0.0431 0.54643,0.007 0.12332,0.0499 -0.0217,0.0877 -0.32222,0.084 -0.30054,-0.004 -0.40143,-0.0445 -0.22421,-0.0907 z M 33.431524,122.35074 c 0.0087,-0.21219 0.0519,-0.25535 0.110044,-0.11005 0.05262,0.13149 0.04615,0.28859 -0.01437,0.34911 -0.06053,0.0605 -0.103575,-0.047 -0.09567,-0.23906 z m 95.065136,-0.69104 c 0,-0.0378 0.14344,-0.18126 0.31875,-0.31875 0.2889,-0.22657 0.29534,-0.22012 0.0688,0.0688 -0.23794,0.30341 -0.38752,0.39989 -0.38752,0.24998 z m -95.219404,-1.20624 c 0,-0.35063 0.03749,-0.49407 0.0833,-0.31875 0.04581,0.17531 0.04581,0.46219 0,0.6375 -0.04581,0.17532 -0.0833,0.0319 -0.0833,-0.31875 z m 100.103154,-1.39944 c 0.13149,-0.0526 0.28859,-0.0461 0.34912,0.0144 0.0605,0.0605 -0.0471,0.10358 -0.23907,0.0957 -0.21219,-0.009 -0.25535,-0.0519 -0.11005,-0.11005 z M 33.277256,117.357 c 0,-0.35063 0.03749,-0.49407 0.0833,-0.31875 0.04581,0.17531 0.04581,0.46219 0,0.6375 -0.04581,0.17532 -0.0833,0.0319 -0.0833,-0.31875 z m 3.395257,-1.41162 c -0.226564,-0.28889 -0.220122,-0.29534 0.06877,-0.0688 0.303407,0.23795 0.399895,0.38752 0.249982,0.38752 -0.03782,0 -0.181261,-0.14344 -0.318753,-0.31875 z m -3.240989,-0.51608 c 0.0087,-0.21219 0.0519,-0.25535 0.110044,-0.11004 0.05262,0.13148 0.04615,0.28858 -0.01437,0.34911 -0.06053,0.0605 -0.103575,-0.0471 -0.09567,-0.23907 z m 0.714198,-3.53664 c 0,-0.10018 0.08197,-0.18214 0.182145,-0.18214 0.100179,0 0.182144,0.082 0.182144,0.18214 0,0.10018 -0.08196,0.18214 -0.182144,0.18214 -0.10018,0 -0.182145,-0.082 -0.182145,-0.18214 z"
         id="path306" /><path
         style="fill:#393e46;fill-opacity:1;stroke-width:0.182145"
         d="m 114.45684,193.12727 c -3.99267,-0.67574 -7.60469,-2.51271 -10.52033,-5.35032 -2.6481,-2.57723 -4.13373,-4.80558 -7.531467,-11.29676 -3.922999,-7.49466 -5.262349,-9.08101 -9.819077,-11.62986 -5.498248,-3.07551 -7.762217,-5.10186 -11.599876,-10.38241 -3.34173,-4.59816 -4.71011,-5.88912 -7.781111,-7.34086 -2.130101,-1.00696 -3.996485,-1.4496 -8.014365,-1.90075 -1.803232,-0.20248 -3.934325,-0.49951 -4.735761,-0.66007 -3.209093,-0.6429 -6.594118,-2.07759 -9.557889,-4.05095 -1.850495,-1.2321 -4.925144,-4.14041 -6.266571,-5.92754 -4.563722,-6.08007 -6.292457,-13.76071 -4.748846,-21.09877 0.258388,-1.22834 0.381272,-1.57529 0.49549,-1.399 0.02704,0.0417 0.231604,0.44474 0.454578,0.89555 0.222976,0.45081 0.557478,1.08247 0.743338,1.4037 1.254412,2.16804 5.622979,6.4384 8.385791,8.19727 0.662602,0.42183 1.534137,1.01111 1.936746,1.30951 1.280563,0.9491 5.673734,3.19244 6.773035,3.4586 0.380304,0.0921 1.205998,0.37501 1.834876,0.62874 0.62888,0.25373 1.899339,0.67534 2.823243,0.9369 3.038931,0.86035 7.62227,2.31683 8.601323,2.73331 0.300538,0.12785 1.489032,0.539 2.641097,0.91368 1.152065,0.37468 2.172531,0.7531 2.267702,0.84093 0.09517,0.0878 0.289411,0.15971 0.431646,0.15971 0.142235,0 1.02211,0.3689 1.955276,0.81979 1.738119,0.83982 3.598774,2.18726 4.306889,3.11893 0.795642,1.04684 3.341928,3.64004 4.359599,4.43993 0.57355,0.45081 1.724768,1.35923 2.558262,2.01872 0.833493,0.65949 1.925268,1.43363 2.426166,1.72032 0.500897,0.28669 1.156618,0.70339 1.457157,0.926 1.081673,0.8012 5.939364,3.34933 6.385078,3.34933 0.120228,0 0.320634,0.12294 0.445347,0.27321 0.124713,0.15027 0.366752,0.27322 0.537868,0.27322 0.171114,0 0.714342,0.20534 1.207173,0.45632 0.49283,0.25098 1.510795,0.62866 2.262142,0.83929 0.751346,0.21064 1.448051,0.44665 1.548231,0.52447 0.19795,0.15378 2.37085,0.74324 4.82683,1.30943 1.67295,0.38566 2.95134,0.58454 5.64008,0.87743 1.83308,0.19967 1.95782,0.25042 2.01523,0.81989 0.0641,0.63625 0.0272,0.70765 -1.75066,3.38282 -3.5074,5.27771 -4.31221,7.69201 -3.82087,11.46197 0.42365,3.2505 3.33114,8.46699 6.04052,10.83761 0.96889,0.84774 1.5831,1.29516 3.44189,2.50719 1.43076,0.93294 3.90225,1.67371 7.46793,2.23835 2.82757,0.44776 6.62465,0.0828 8.48374,-0.81542 0.43064,-0.20806 0.81337,-0.3783 0.8505,-0.3783 0.2051,0 -1.74355,2.27839 -2.89324,3.38282 -2.83056,2.71913 -6.17693,4.42829 -9.97114,5.09278 -1.59783,0.27983 -5.166,0.3249 -6.59357,0.0833 z m 15.3745,-37.96708 c -1.64882,-1.99165 -2.85975,-4.15026 -3.2451,-5.78475 -0.37958,-1.61001 -0.33998,-4.42513 0.11054,-7.85824 0.38327,-2.92056 0.38357,-2.95567 0.0455,-5.21715 -0.22659,-1.51594 -0.34032,-3.28117 -0.34032,-5.2822 0,-3.72628 0.33558,-5.6612 1.37915,-7.95199 0.89616,-1.96719 2.85496,-3.55109 4.66412,-3.77144 0.48374,-0.0589 1.13016,-0.15725 1.43648,-0.21852 0.76885,-0.15377 4.30963,0.39159 5.93318,0.91384 0.73743,0.23722 2.20142,0.73037 3.2533,1.09589 2.11538,0.73508 5.41351,1.58116 7.37686,1.89241 3.0135,0.47774 3.53314,0.52928 5.05024,0.50092 0.87892,-0.0164 1.59804,0.0252 1.59804,0.0925 0,0.29987 -2.14831,3.10011 -3.24905,4.235 -2.94834,3.03979 -5.96702,4.69397 -12.85716,7.04545 -2.39684,0.818 -5.00937,1.76203 -5.80564,2.09785 -4.22701,1.78273 -6.75305,4.2753 -7.53213,7.43231 -0.58645,2.37648 0.21046,5.63933 2.45728,10.06097 0.68175,1.34166 1.21949,2.43937 1.19498,2.43937 -0.0245,0 -0.68615,-0.77499 -1.47031,-1.7222 z"
         id="path304" /></g></g></svg>
